<svg height="512" viewBox="0 0 60 60" width="512" xmlns="http://www.w3.org/2000/svg"><g id="Page-1" fill="none" fill-rule="evenodd"><g id="021---Charity-Donation" fill-rule="nonzero"><path id="Shape" d="m35.76 19.75c.9716039.9884473 1.4027231 2.3871457 1.1561847 3.7510596s-1.1400298 2.5231783-2.3961847 3.1089404c-1.6720169.7215418-3.6161807.3311155-4.88-.98l-2.83-2.82-2.83-2.83-3.83-3.84c-.2894136-.2879967-.724845-.3711245-1.1-.21-1.3545475.5791076-2.8172018.862092-4.29.83-2.201817.06655-4.3705164-.5480894-6.21-1.76h-5.55c-1.10320187-.0032948-1.9967052-.8967981-2-2v-10c.0032948-1.10320187.89679813-1.9967052 2-2h22.28c1.7284327.00183275 3.3721155.74896129 4.51 2.05l11.08 12.65c-1.5819032-.4631939-3.2216781-.6988905-4.87-.7-1.4924404-.0020648-2.9786194.1929542-4.42.58 1.46 1.45 2.72 2.71 3.46 3.46h.01z" fill="#ffdfb1"/><path id="Shape" d="m35.05 19.04h-.01c-.74-.75-2-2.01-3.46-3.46.9568882-.2544534 1.9343336-.4241093 2.921-.507-.495-.044-.995-.073-1.501-.073-1.4924404-.0020648-2.9786194.1929542-4.42.58 1.46 1.45 2.72 2.71 3.46 3.46h.01l.71.71c.9716039.9884473 1.4027231 2.3871457 1.1561847 3.7510596s-1.1400298 2.5231783-2.3961847 3.1089404c-.075.035-.154.054-.23.083 1.0442292.4066211 2.2080327.3767153 3.23-.083 1.2561549-.5857621 2.1496463-1.7450265 2.3961847-3.1089404s-.1845808-2.7626123-1.1561847-3.7510596z" fill="#dec39b"/><path id="Shape" d="m26.79 3.05 10.511 12c1.2089959.0916543 2.4051343.3091645 3.569.649l-11.08-12.649c-1.1378845-1.30103871-2.7815673-2.04816725-4.51-2.05h-3c1.7284327.00183275 3.3721155.74896129 4.51 2.05z" fill="#dec39b"/><rect id="Rectangle-path" fill="#02a8f3" height="6" rx="1" width="46" x="13" y="45"/><path id="Shape" d="m58 45h-3c.5522847 0 1 .4477153 1 1v4c0 .5522847-.4477153 1-1 1h3c.5522847 0 1-.4477153 1-1v-4c0-.5522847-.4477153-1-1-1z" fill="#0377bb"/><path id="Shape" d="m36 45h-10.95c-3.641968-3.0657775-5.8310223-7.518601-6.0344254-12.2748127-.2034032-4.7562118 1.5974968-9.3796688 4.9644254-12.7451873l2.83 2.83c-3.7159597 3.7178901-4.8272508 9.3077343-2.8159268 14.1642392 2.011324 4.8565048 6.7494014 8.0238301 12.0059268 8.0257608z" fill="#ff9701"/><path id="Shape" d="m53 32c.0055004 5.0148996-2.2097162 9.7748692-6.05 13h-10.95c7.1797017 0 13-5.8202983 13-13s-5.8202983-13-13-13c-.32 0-.63.01-.95.04h-.01c-.74-.75-2-2.01-3.46-3.46 1.4413806-.3870458 2.9275596-.5820648 4.42-.58 1.6483219.0011095 3.2880968.2368061 4.87.7v.01c7.200492 2.1505549 12.1334051 8.7752173 12.13 16.29z" fill="#ff9701"/><path id="Shape" d="m49 32c.0021615 5.8848834-3.9492437 11.0372579-9.6333637 12.5612778-5.6841201 1.5240198-11.6831115-.9604656-14.6252951-6.0570736s-2.0936628-11.5340436 2.0686588-15.6942042l2.83 2.82c1.2638193 1.3111155 3.2079831 1.7015418 4.88.98 1.2561549-.5857621 2.1496463-1.7450265 2.3961847-3.1089404s-.1845808-2.7626123-1.1561847-3.7510596l-.71-.71c.32-.03.63-.04.95-.04 7.1769596.0066157 12.9933843 5.8230404 13 13z" fill="#ffdb00"/><path id="Shape" d="m26.64 25.63c1.2051285 1.2396459 3.02595 1.6558896 4.65 1.063-.6193137-.2330075-1.1818215-.5953989-1.65-1.063l-2.83-2.82c-.4985322.5049039-.9553586 1.0493499-1.366 1.628z" fill="#fdc008"/><path id="Shape" d="m36 19c-.32 0-.63.01-.95.04l.163.163c6.3625803 1.0987213 10.9519465 6.7044984 10.7728845 13.1587646-.1790619 6.4542663-5.0721739 11.7969692-11.4858845 12.5412354 4.8078489.589822 9.5448974-1.5423298 12.2913517-5.5323535 2.7464543-3.9900238 3.0467721-9.1761118.7792429-13.456487-2.2675291-4.2803753-6.7268001-6.9450707-11.5705946-6.9141595z" fill="#fdc008"/><path id="Shape" d="m58 51v7c0 .5522847-.4477153 1-1 1h-42c-.5522847 0-1-.4477153-1-1v-7z" fill="#3f51b4"/><path id="Shape" d="m55 51v7c0 .5522847-.4477153 1-1 1h3c.5522847 0 1-.4477153 1-1v-7z" fill="#283592"/><path id="Shape" d="m58 44h-8.615c4.0886006-4.5408057 5.5890489-10.8483554 3.9830379-16.7438028-1.6060109-5.8954474-6.0982861-10.5704867-11.9250379-12.4101972l-10.901-12.456c-1.3279152-1.51734677-3.2456426-2.38837841-5.262-2.39h-22.28c-1.65685425 0-3 1.34314575-3 3v10c0 1.6568542 1.34314575 3 3 3h5.24c1.9562747 1.2069394 4.2221996 1.8168624 6.52 1.755 1.6066263.0336379 3.2020001-.2752101 4.68-.906l3.16 3.163c-6.1408386 6.8191817-6.1343621 17.1765035.015 23.988h-8.615c-1.1045695 0-2 .8954305-2 2v4c.002145.7113268.3832487 1.3675874 1 1.722v6.278c0 1.1045695.8954305 2 2 2h42c1.1045695 0 2-.8954305 2-2v-6.278c.6167513-.3544126.997855-1.0106732 1-1.722v-4c0-1.1045695-.8954305-2-2-2zm-6-12c-.0021464 4.5972807-1.9861174 8.9704717-5.444 12h-3.382c5.4087947-3.2236812 7.9965468-9.6642722 6.321754-15.7340539s-7.1991562-10.2720528-13.495754-10.2659461c-.186 0-.372.016-.558.023l-1.842-1.838c.7943082-.1210729 1.5965202-.1829101 2.4-.185 8.8322157.0104696 15.9895304 7.1677843 16 16zm-23.067-5.658c.5915718.5835415 1.3059418 1.027674 2.091 1.3-.009.119-.024.238-.024.356.0029983 2.3751008 1.6735832 4.4215673 4 4.9v5.917c-1.1940068-.4221309-1.9943273-1.548582-2-2.815 0-.5522847-.4477153-1-1-1s-1 .4477153-1 1c.0029983 2.3751008 1.6735832 4.4215673 4 4.9v.1c0 .5522847.4477153 1 1 1s1-.4477153 1-1v-.1c2.330324-.4731925 4.0050126-2.5221184 4.0050126-4.9s-1.6746886-4.4268075-4.0050126-4.9v-5.278c.1155637-.1603879.2217415-.3273341.318-.5 1.0238418.5006962 1.6755432 1.5383039 1.682 2.678 0 .5522847.4477153 1 1 1s1-.4477153 1-1c-.0080491-2.0100136-1.2161511-3.8207887-3.069-4.6.1464051-1.1534651-.0881689-2.3231746-.668-3.331 6.4276978.6802938 11.1617244 6.3293942 10.707307 12.7769987-.4544174 6.4476044-5.9339909 11.3768657-12.393567 11.1488839-6.4595761-.2279817-11.5780055-5.5312848-11.57674-11.9948826-.0048731-2.8382516 1.0048603-5.5847832 2.847-7.744zm8.067 6.842c1.1981296.4174114 2.0009455 1.5472421 2.0009455 2.816s-.8028159 2.3985886-2.0009455 2.816zm-2-2.368c-1.1943509-.4222546-1.9947486-1.5492146-2-2.816v-.031c.6663141-.0193438 1.3220894-.1713042 1.929-.447.023-.01.044-.024.067-.035zm-16.363-15.795c-1.226085.5154222-2.547358.7655678-3.877.734-5.39 0-7.557-3.246-7.8-4.049-.10503608-.3415459-.384306-.6011113-.73261147-.6809203s-.71273061.0322631-.956.294-.32842461.6333744-.22338853.9749203c.22528384.6201301.55504467 1.197127.975 1.706h-3.023c-.55228475 0-1-.4477153-1-1v-10c0-.55228475.44771525-1 1-1h22.28c1.4399933.0024512 2.8092214.62476138 3.758 1.708l9.133 10.436c-2.0942624-.2718968-4.2205985-.1583612-6.274.335l-8.19-8.186c-.3923789-.37897221-1.0160848-.37355237-1.4018186.01218142-.3857338.3857338-.3911536 1.00943969-.0121814 1.40181858l12.107 12.1.653.652c.748181.7654524 1.0739485 1.8488535.872 2.9-.176098 1.0387093-.8615227 1.9198087-1.825 2.346-1.2906536.5454505-2.7841203.2361691-3.752-.777l-9.493-9.493c-.5834858-.581677-1.4639679-.7460231-2.218-.414zm1.363 16.979c-.0054652-3.8984635 1.4244698-7.6624996 4.017-10.574l1.416 1.416c-2.7192648 3.1201708-3.9125217 7.2867847-3.2571729 11.3733951.6553488 4.0866105 3.0916224 7.6711751 6.6501729 9.7846049h-3.382c-3.4578826-3.0295283-5.4418536-7.4027193-5.444-12zm-6 14h44v4h-44zm1 12v-6h42v6z" fill="#000"/></g></g></svg>